<svg xmlns="http://www.w3.org/2000/svg" xmlns:xlink="http://www.w3.org/1999/xlink" version="1.1" x="0px" y="0px" viewBox="0 0 100 125" style="enable-background:new 0 0 100 100;" xml:space="preserve"><g><path d="M64,48.3L40,37.5c-0.3-0.1-0.5-0.2-0.8-0.2c-1.2,0-2.2,1.3-1.7,2.6l4.1,9.4c0.2,0.5,0.2,1,0,1.5l-4.1,9.4   c-0.6,1.3,0.4,2.6,1.7,2.6c0.3,0,0.5-0.1,0.8-0.2l24-10.8C65.5,51,65.5,49,64,48.3z"/><path d="M50,6.5C26,6.5,6.5,26,6.5,50S26,93.5,50,93.5S93.5,74,93.5,50S74,6.5,50,6.5z M65.2,54.4l-24,10.8   c-0.6,0.3-1.3,0.4-2,0.4c-1.6,0-3.1-0.8-4.1-2.2c-0.9-1.4-1-3.1-0.4-4.6l3.9-8.9l-3.9-8.9c-0.7-1.5-0.5-3.2,0.4-4.6   c0.9-1.4,2.4-2.2,4.1-2.2h0c0.7,0,1.4,0.1,2,0.4l24,10.8c1.8,0.8,2.9,2.5,2.9,4.4S67,53.6,65.2,54.4z"/></g></svg>